<svg width="23" height="10" viewBox="0 0 23 10" fill="none" xmlns="http://www.w3.org/2000/svg">
<path d="M5.4929 2.78267C5.45881 2.43892 5.3125 2.17187 5.05398 1.98153C4.79545 1.79119 4.4446 1.69602 4.00142 1.69602C3.70028 1.69602 3.44602 1.73864 3.23864 1.82386C3.03125 1.90625 2.87216 2.02131 2.76136 2.16903C2.65341 2.31676 2.59943 2.48438 2.59943 2.67188C2.59375 2.82812 2.62642 2.96449 2.69744 3.08097C2.77131 3.19744 2.87216 3.2983 3 3.38352C3.12784 3.46591 3.27557 3.53835 3.44318 3.60085C3.6108 3.66051 3.78977 3.71165 3.98011 3.75426L4.7642 3.94176C5.14489 4.02699 5.49432 4.14062 5.8125 4.28267C6.13068 4.42472 6.40625 4.59943 6.6392 4.80682C6.87216 5.0142 7.05256 5.25852 7.1804 5.53977C7.31108 5.82102 7.37784 6.14347 7.38068 6.5071C7.37784 7.04119 7.24148 7.50426 6.97159 7.89631C6.70455 8.28551 6.31818 8.58807 5.8125 8.80398C5.30966 9.01705 4.70313 9.12358 3.9929 9.12358C3.28835 9.12358 2.67472 9.01562 2.15199 8.79972C1.6321 8.58381 1.22585 8.2642 0.933239 7.84091C0.643466 7.41477 0.491477 6.88778 0.477273 6.25994H2.26278C2.28267 6.55256 2.36648 6.79687 2.5142 6.9929C2.66477 7.18608 2.86506 7.33239 3.11506 7.43182C3.3679 7.52841 3.65341 7.5767 3.97159 7.5767C4.28409 7.5767 4.5554 7.53125 4.78551 7.44034C5.01847 7.34943 5.19886 7.22301 5.3267 7.06108C5.45455 6.89915 5.51847 6.71307 5.51847 6.50284C5.51847 6.30682 5.46023 6.14205 5.34375 6.00852C5.23011 5.875 5.0625 5.76136 4.84091 5.66761C4.62216 5.57386 4.35369 5.48864 4.03551 5.41193L3.08523 5.1733C2.34943 4.99432 1.76847 4.71449 1.34233 4.33381C0.916193 3.95312 0.704545 3.44034 0.707386 2.79545C0.704545 2.26705 0.84517 1.8054 1.12926 1.41051C1.41619 1.01562 1.80966 0.707386 2.30966 0.485795C2.80966 0.264204 3.37784 0.153409 4.0142 0.153409C4.66193 0.153409 5.22727 0.264204 5.71023 0.485795C6.19602 0.707386 6.57386 1.01562 6.84375 1.41051C7.11364 1.8054 7.25284 2.26278 7.26136 2.78267H5.4929ZM8.6218 9V0.272727H10.467V7.47869H14.2085V9H8.6218ZM15.4304 9V0.272727H18.8736C19.5327 0.272727 20.0952 0.390625 20.5611 0.62642C21.0298 0.859375 21.3864 1.19034 21.6307 1.61932C21.8778 2.04545 22.0014 2.54687 22.0014 3.12358C22.0014 3.70312 21.8764 4.2017 21.6264 4.61932C21.3764 5.03409 21.0142 5.35227 20.5398 5.57386C20.0682 5.79545 19.4972 5.90625 18.8267 5.90625H16.5213V4.4233H18.5284C18.8807 4.4233 19.1733 4.375 19.4062 4.27841C19.6392 4.18182 19.8125 4.03693 19.9261 3.84375C20.0426 3.65057 20.1009 3.41051 20.1009 3.12358C20.1009 2.83381 20.0426 2.58949 19.9261 2.39062C19.8125 2.19176 19.6378 2.04119 19.402 1.93892C19.169 1.83381 18.875 1.78125 18.5199 1.78125H17.2756V9H15.4304ZM20.1435 5.02841L22.3125 9H20.2756L18.1534 5.02841H20.1435Z" fill="#F9A825"/>
</svg>
